<?xml version="1.0" encoding="utf-8"?>
<!-- Generator: Adobe Illustrator 17.0.2, SVG Export Plug-In . SVG Version: 6.00 Build 0)  -->
<!DOCTYPE svg PUBLIC "-//W3C//DTD SVG 1.1//EN" "http://www.w3.org/Graphics/SVG/1.1/DTD/svg11.dtd">
<svg version="1.1" id="Capa_1" xmlns="http://www.w3.org/2000/svg" xmlns:xlink="http://www.w3.org/1999/xlink" x="0px" y="0px"
	 width="960px" height="560px" viewBox="0 0 960 560" enable-background="new 0 0 960 560" xml:space="preserve">
<polygon points="0,0 720,0 0,350 "/>
<polygon points="240,560 960,210 960,560 "/>
<line fill="none" x1="720" y1="0" x2="0" y2="350"/>
<line fill="none" x1="240" y1="560" x2="960" y2="210"/>
<path d="M125.743,292.708c0.001-0.004,0-0.008,0.001-0.012c-0.007-0.001-0.012-0.004-0.019-0.005L125.743,292.708z"/>
<path d="M216.735,282.064c-0.737-0.916-1.976-0.883-2.957-1.352c-0.791-0.378-2.154,0.537-2.424-1.075
	c-0.01-0.062-0.41-0.132-0.594-0.079c-1.063,0.305-2.289,0.72-2.695,1.686c-1.145,2.722-3.285,4.581-5.379,6.394
	c-2.96,2.563-5.588,5.441-8.375,8.165c-0.594,0.581-0.829,1.481-1.74,1.811c-0.565,0.205-1.024,0.638-1.542-0.091
	c-0.444-0.623-0.524-1.136,0.043-1.731c0.6-0.629,1.134-1.319,1.694-1.985c0.211-0.251,0.466-0.532,0.217-0.858
	c-0.218-0.286-0.586-0.234-0.913-0.201c-0.724,0.073-1.124,0.597-1.551,1.098c-0.572,0.671-1.167,1.322-1.936,2.189
	c-0.233-2.962,0.725-5.305,1.567-7.664c0.547-1.533,1.268-3.007,1.75-4.558c0.404-1.298,0.587-2.582,2.367-2.727
	c0.638-0.052,1.183-0.75,0.939-1.479c-0.301-0.903-0.929-0.375-1.466-0.157c-0.264,0.107-0.604,0.311-0.812-0.138
	c0.498-0.62,1.572-0.934,1.359-1.894c-0.473-2.132,1.278-3.54,1.846-5.293c0.406-1.252,1.119-2.745,1.84-4.059
	c1.371-2.5,2.301-5.201,3.367-7.841c0.359-0.89,1.033-1.649,1.512-2.497c0.195-0.345,0.538-0.98-0.086-1.072
	c-1.005-0.15-1.04-0.936-1.437-1.549c-0.703-1.087-1.695-2.232-3.005-2.014c-1.105,0.184-2.087,0.946-2.831,2.175
	c-1.187,1.96-1.84,4.14-2.996,6.081c-0.505,0.849-1.124,1.709-1.128,2.667c-0.012,2.359-1.789,3.983-2.333,6.078
	c-0.692,2.664-4.179,3.929-3.539,7.233c0.037,0.191-0.238,0.485-0.427,0.67c-1.648,1.607-2.344,3.734-3.194,5.778
	c-0.989,1.476-1.443,3.308-3.347,4.147c-1.05,0.463-1.833,0.492-2.683-0.17c-0.903-0.703-0.183-1.412,0.108-2.017
	c0.848-1.76,1.458-3.602,2.066-5.448c-0.911-0.793-0.314-1.209,0.415-1.527c1.789-0.778,1.887-0.856,0.562-2.253
	c-0.787-0.829-0.725-1.428-0.198-2.268c0.456-0.727,1.137-1.518,0.861-2.381c-0.434-1.356-0.087-1.85,1.298-1.74
	c0.258,0.02,0.529-0.113,0.622-0.437c-0.028-0.699-1.276,0.052-1.16-1.141c0.225-2.324,2.264-4.371,1.044-6.919
	c-0.113-0.237,0.235-0.694,0.369-1.049c0.518-1.371,0.965-2.759,1.198-4.213c0.476-2.984,0.908-5.977,1.481-8.943
	c0.299-1.549-0.54-3.606-2.062-4.201c-0.386-0.151-0.645-0.283-0.843-0.631c-0.295-0.518-0.719-0.926-1.307-0.448
	c-0.738,0.599-2.252,0.387-2.197,1.75c0.033,0.83-0.353,1.31-0.718,1.899c-0.396,0.639-1.134,1.096-1.184,1.914
	c-0.143,2.328-1.752,4.355-1.37,6.797c0.041,0.261-0.259,0.579-0.411,0.865c-1.545,2.901-2.362,6.122-2.673,9.27
	c-0.266,2.689-1.603,4.861-2.439,7.199c-0.777,2.171-0.92,4.385-1.483,6.54c-0.394,1.505-0.632,2.819-2.271,3.378
	c-0.518,0.177-1.038,0.431-1.047,1.102c-0.01,0.762,0.782,0.572,1.268,0.994c-0.765,0.27-1.157,1.044-2.1,1.04
	c0.064-0.64,0.131-1.212,0.175-1.786c0.036-0.472,0.247-1.038-0.346-1.301c-0.694-0.307-0.487,0.734-0.995,0.76
	c-0.543-0.408-0.379-0.978-0.41-1.507c-0.07-1.176,0.429-2.434-0.074-3.505c-0.51-1.085,0.305-2.916-1.685-3.216
	c0.004-0.106-0.021-0.226,0.022-0.315c1.211-2.515,1.307-4.973,0.108-7.59c-0.477-1.04-1.17-2.425,0.034-3.627
	c0.159-0.159,0.24-0.516,0.19-0.745c-0.398-1.825-0.241-3.774-0.011-5.476c0.407-3.017-0.558-5.852-0.369-8.773
	c0.076-1.174-0.471-1.413-1.438-1.214c-1.311,0.269-2.313-0.125-3.136-1.201c-0.654-0.855-2.126-0.594-2.19,0.453
	c-0.095,1.57-0.914,2.878-1.155,4.386c-0.413,2.585,0.309,5.177-0.233,7.751c-0.357,1.697,0.596,3.419,0.191,5.067
	c-0.329,1.338-0.678,2.638-0.411,3.98c0.131,0.657,0.255,1.304,0.091,1.918c-0.44,1.645-0.53,3.31-0.501,4.996
	c0.019,1.136-0.489,2.338,0.444,3.351c-1.568,2.757,0.109,6.078-1.528,8.827c-0.076,0.128-0.125,0.382-0.054,0.471
	c1.17,1.473-0.361,2.69-0.424,4.053c-0.043,0.923-0.704,1.784-1.878,1.974c-0.787,0.127-1.36,0.667-1.7,1.403
	c-0.691,1.496-0.232,3.185-0.843,4.745c-0.297,0.758,0.037,0.888-0.741,0.586c-1.336-0.52-2.426,2.095-3.535,2.602
	c-1.09-1.245-0.942-2.84-1.421-4.229c-0.287-0.831-0.412-1.659-1.242-2.18c-0.409-0.257-3.445-7.278-3.805-7.196
	c-0.556,0.127-1.251-0.232-1.225-0.541c0.091-1.086-0.852-1.698-0.99-2.66c-0.146-1.018-0.903-1.516-1.852-1.835
	c-0.863-0.29-1.718-0.653-2.498-1.117c-0.362-0.216-0.792-0.768-1.079-0.585c-1.311,0.836-1.749-0.169-2.293-0.964
	c-0.794-1.159-1.799-0.933-2.87-0.51c-1.133,0.448-0.635,1.326-0.59,2.091c0.022,0.38-0.038,0.782,0.064,1.138
	c0.344,1.201-0.003,2.846,1.924,3.087c0.27,0.034,0.448,0.37,0.355,0.653c-0.371,1.13,0.466,1.816,0.931,2.634
	c0.527,0.928,1.222,1.789,1.064,2.959c0.917,0.128,1.364,0.63,1.52,1.581c0.231,1.405,0.911,2.718,0.776,4.21
	c-0.054,0.6,0.215,1.393,0.721,1.562c1.772,0.592,1.216,1.888,1.064,3.051c-0.099,0.754-0.742,1.51,0.158,2.197
	c0.066,0.05,0.008,0.307-0.04,0.453c-0.14,0.42,0.74,2.283,1.112,2.2c1.566-0.351,0.922,0.504,0.643,1.123
	c-0.781,1.741-0.842,3.739-0.049,5.214c0.916,1.702,1.091,3.507,1.729,5.215c0.329,0.88-0.464,1.686,0.007,2.537
	c1.071,1.934,1.119,4.388,3.092,5.886c0.472,0.358,0.767,1.065,0.333,1.772c-0.394,0.641-0.102,1.233,0.393,1.584
	c1.718,1.221,1.218,3.095,1.378,4.726c0.045,0.462,0.001,0.536,0.426,0.707c1.122,0.452,2.232,0.95,3.293,1.529
	c1.691,0.924,2.38,3.583,5.041,2.875c0.302-0.08,0.746,0.169,1.058,0.368c0.861,0.551,1.836,0.508,2.777,0.705
	c1.539,0.323,1.594-0.929,1.334-1.456c-0.449-0.908,0.008-1.293,0.421-1.835c0.302-0.397,0.501-0.833,0.547-1.339
	c0.287-3.184,0.649-6.348,1.96-9.325c0.224-0.508,0.358-1.162-0.142-1.694c-0.195-0.208-0.278-0.462-0.119-0.744
	c0.222-0.393,0.793-0.786,0.186-1.241c-0.5-0.375-1.045-0.082-1.54,0.147c-0.581,0.27-1.231,0.37-1.687,0.924
	c-1.162,1.411-2.634,1.015-4.045,0.535c-0.693-0.236-0.859-0.835-0.372-1.438c1.317-1.63,2.263-3.51,3.745-5.053
	c1.434-1.493,3.258-2.625,4.417-4.299c0.863-1.247,2.158-1.582,3.37-2.828c-0.22,1.654-1.522,2.167-2.007,3.352
	c0.55-0.15,0.863-0.235,1.175-0.32c0.347-0.526,0.86-0.839,1.44-1.012c1.134-0.339,1.919-0.763,1.052-2.135
	c-0.289-0.457-0.006-0.837,0.601-1.07c0.771-0.296,1.469-0.805,1.926-1.669c-1.207-0.206-1.798,1.848-3.139,0.594
	c0.431-0.62,1.327-0.755,1.805-1.926c-1.029,0.688-1.782,1.122-2.45,1.66c-0.506,0.407-0.974,0.718-1.608,0.376
	c-0.602-0.325-0.351-0.827-0.216-1.291c0.12-0.409,0.047-0.906-0.29-1.021c-1.637-0.558-1.258-1.822-1.063-2.96
	c0.191-1.116,0.242-2.215,0.618-3.368c0.622-1.905,1.488-1.875,2.375-2.195c2.928-1.055,4.978,0.68,5.484-0.101
	c0.319-0.493,0.828-0.603,1.289-0.366c0.916,0.472,1.274,1.552,2.273,2.038c1.036,0.503,0.651,1.673,0.837,2.604
	c0.285,1.427,0.262,2.667-0.387,4.007c-0.547,1.128-1.352,1.963-2.462,2.081c-1.568,0.167-2.473,1.271-3.659,1.985
	c-0.842,0.507-0.308,0.827,0.128,1.175c1.472-0.347,2.799-0.511,4.279,0.43c1.381,0.878,3.532,0.624,3.826,2.947
	c0.027,0.217,0.321,0.445,0.544,0.584c0.757,0.473,1.183,1.199,1.71,1.888c1.144,1.498,2.059,3.196,3.863,4.172
	c0.702,0.38,0.96,1.461-0.088,2.133c-0.546,0.35-1.118,0.635-1.485,1.233c-0.719,1.173-1.601,1.707-2.965,0.791
	c-0.544-0.365-1.551-0.359-1.267,0.634c0.285,0.995,0.063,1.627-0.448,2.388c-0.405,0.602-0.509,1.331,0.058,1.942
	c0.21,0.226,0.798,0.47,0.646,0.619c-1.066,1.041-0.052,2.105-0.11,3.142c-0.067,1.2,0.195,2.363,0.946,3.354
	c0.29,0.384,0.724,0.693,0.434,1.28c-0.237,0.48-0.597,1.017,0.055,1.434c0.668,0.427,1.591,0.374,2.003-0.085
	c1.14-1.27,2.758-1.841,3.94-3.087c1.945-2.049,3.683-4.267,5.404-6.475c1.333-1.71,2.899-3.649,1.592-6.175
	c-0.06-0.116-0.038-0.339,0.037-0.451c1.547-2.318,1.353-5.293,3.372-7.585c1.865-2.117,2.63-5.118,3.65-7.826
	c0.486-1.29,1.757-2.332,3.196-2.33c0.898,0.001,2.491-2.159,2.04-2.944c-0.472-0.82-0.127-1.288,0.437-1.63
	c1.338-0.811,2.102-2.168,2.97-3.327c2.245-2.994,4.747-5.73,7.328-8.42c1.125-1.173,2.143-2.446,3.331-3.571
	c0.511-0.484,0.796-1.03,0.02-1.859c-0.392-0.419,1.383-0.504,1.423-1.495c0.065-1.595,0.976-1.995,2.411-1.698
	C217.026,283.185,217.322,282.795,216.735,282.064z"/>
<path d="M524.198,287.319c-0.737-0.916-1.976-0.883-2.957-1.352c-0.791-0.378-2.154,0.537-2.424-1.075
	c-0.01-0.062-0.41-0.132-0.594-0.079c-1.063,0.305-2.289,0.72-2.695,1.686c-1.145,2.722-3.285,4.581-5.379,6.394
	c-2.96,2.563-5.588,5.44-8.375,8.165c-0.594,0.581-0.829,1.481-1.74,1.811c-0.565,0.205-1.024,0.638-1.542-0.091
	c-0.444-0.623-0.524-1.136,0.043-1.731c0.6-0.629,1.134-1.319,1.694-1.985c0.211-0.251,0.466-0.532,0.217-0.858
	c-0.218-0.286-0.586-0.234-0.913-0.201c-0.724,0.073-1.124,0.597-1.551,1.098c-0.572,0.671-1.167,1.322-1.936,2.189
	c-0.233-2.962,0.725-5.305,1.567-7.663c0.547-1.533,1.268-3.007,1.75-4.558c0.404-1.298,0.587-2.582,2.367-2.727
	c0.638-0.052,1.183-0.75,0.939-1.479c-0.301-0.903-0.929-0.375-1.466-0.157c-0.264,0.107-0.604,0.311-0.812-0.138
	c0.498-0.62,1.572-0.934,1.359-1.894c-0.473-2.132,1.278-3.54,1.846-5.293c0.406-1.252,1.119-2.745,1.84-4.059
	c1.371-2.5,2.301-5.201,3.367-7.841c0.359-0.89,1.033-1.649,1.512-2.497c0.195-0.345,0.538-0.979-0.086-1.072
	c-1.005-0.15-1.04-0.936-1.437-1.549c-0.703-1.087-1.695-2.232-3.005-2.014c-1.105,0.184-2.087,0.946-2.831,2.175
	c-1.187,1.96-1.84,4.14-2.996,6.081c-0.505,0.849-1.124,1.709-1.128,2.667c-0.012,2.359-1.789,3.983-2.333,6.078
	c-0.692,2.664-4.179,3.929-3.539,7.233c0.037,0.191-0.238,0.485-0.427,0.67c-1.648,1.607-2.344,3.734-3.194,5.778
	c-0.989,1.476-1.443,3.308-3.347,4.147c-1.05,0.463-1.833,0.492-2.683-0.17c-0.903-0.703-0.183-1.412,0.108-2.017
	c0.848-1.76,1.458-3.602,2.066-5.448c-0.911-0.793-0.314-1.21,0.415-1.527c1.789-0.778,1.887-0.856,0.562-2.253
	c-0.787-0.829-0.725-1.428-0.198-2.268c0.456-0.727,1.137-1.518,0.861-2.381c-0.434-1.356-0.087-1.85,1.298-1.74
	c0.258,0.02,0.529-0.113,0.622-0.437c-0.028-0.699-1.276,0.052-1.16-1.141c0.225-2.324,2.264-4.371,1.044-6.919
	c-0.113-0.237,0.235-0.694,0.369-1.049c0.518-1.371,0.965-2.759,1.198-4.213c0.476-2.984,0.908-5.977,1.481-8.943
	c0.299-1.549-0.54-3.606-2.062-4.201c-0.386-0.151-0.645-0.283-0.843-0.631c-0.295-0.518-0.719-0.926-1.307-0.448
	c-0.738,0.599-2.252,0.387-2.197,1.75c0.033,0.83-0.353,1.31-0.718,1.899c-0.396,0.639-1.134,1.096-1.184,1.914
	c-0.143,2.328-1.752,4.355-1.37,6.797c0.041,0.261-0.259,0.579-0.411,0.865c-1.545,2.901-2.362,6.122-2.673,9.27
	c-0.266,2.689-1.603,4.861-2.439,7.199c-0.777,2.171-0.92,4.385-1.483,6.54c-0.394,1.505-0.632,2.819-2.271,3.378
	c-0.518,0.177-1.038,0.431-1.047,1.102c-0.01,0.762,0.782,0.572,1.268,0.994c-0.765,0.27-1.157,1.044-2.1,1.04
	c0.064-0.64,0.131-1.212,0.175-1.786c0.036-0.472,0.247-1.038-0.346-1.301c-0.694-0.307-0.487,0.734-0.995,0.76
	c-0.543-0.408-0.379-0.978-0.41-1.507c-0.07-1.176,0.429-2.434-0.074-3.505c-0.51-1.085,0.305-2.916-1.685-3.216
	c0.004-0.106-0.021-0.226,0.022-0.315c1.211-2.515,1.307-4.973,0.108-7.59c-0.477-1.04-1.17-2.425,0.034-3.627
	c0.159-0.159,0.24-0.516,0.19-0.745c-0.398-1.825-0.241-3.774-0.011-5.476c0.407-3.017-0.558-5.852-0.369-8.773
	c0.076-1.174-0.471-1.413-1.438-1.214c-1.311,0.269-2.313-0.125-3.136-1.201c-0.654-0.855-2.126-0.594-2.19,0.453
	c-0.095,1.57-0.914,2.878-1.155,4.386c-0.413,2.585,0.309,5.177-0.233,7.751c-0.357,1.697,0.596,3.419,0.191,5.067
	c-0.329,1.338-0.678,2.638-0.411,3.98c0.131,0.657,0.255,1.304,0.091,1.918c-0.44,1.645-0.53,3.31-0.501,4.996
	c0.019,1.136-0.489,2.338,0.444,3.351c-1.568,2.757,0.109,6.078-1.528,8.827c-0.076,0.128-0.125,0.382-0.054,0.471
	c1.17,1.473-0.361,2.69-0.424,4.053c-0.043,0.923-0.704,1.784-1.878,1.974c-0.787,0.127-1.36,0.667-1.7,1.403
	c-0.691,1.496-0.232,3.185-0.843,4.745c-0.297,0.758,0.037,0.888-0.741,0.586c-1.336-0.52-2.426,2.095-3.535,2.602
	c-1.09-1.245-0.942-2.84-1.421-4.229c-0.287-0.831-0.413-1.659-1.242-2.18c-0.409-0.257-3.445-7.278-3.805-7.196
	c-0.556,0.127-1.251-0.232-1.225-0.541c0.091-1.086-0.852-1.698-0.99-2.66c-0.146-1.018-0.903-1.516-1.852-1.835
	c-0.863-0.29-1.718-0.653-2.498-1.117c-0.362-0.216-0.792-0.768-1.079-0.585c-1.311,0.836-1.749-0.169-2.293-0.964
	c-0.794-1.159-1.799-0.933-2.87-0.51c-1.133,0.448-0.635,1.326-0.59,2.091c0.022,0.38-0.038,0.782,0.064,1.138
	c0.344,1.201-0.003,2.846,1.924,3.087c0.27,0.034,0.448,0.37,0.355,0.653c-0.371,1.13,0.466,1.816,0.931,2.634
	c0.527,0.928,1.222,1.789,1.064,2.959c0.917,0.128,1.364,0.63,1.52,1.581c0.231,1.405,0.911,2.718,0.776,4.21
	c-0.054,0.6,0.215,1.393,0.721,1.562c1.772,0.592,1.216,1.888,1.064,3.051c-0.099,0.754-0.742,1.51,0.158,2.197
	c0.066,0.05,0.008,0.307-0.04,0.453c-0.14,0.42,0.74,2.283,1.112,2.2c1.566-0.351,0.922,0.504,0.643,1.123
	c-0.781,1.741-0.842,3.739-0.049,5.214c0.916,1.702,1.091,3.507,1.729,5.215c0.329,0.88-0.464,1.686,0.007,2.537
	c1.071,1.934,1.119,4.388,3.092,5.886c0.472,0.358,0.767,1.065,0.333,1.772c-0.394,0.641-0.102,1.233,0.393,1.584
	c1.718,1.221,1.218,3.095,1.378,4.726c0.045,0.462,0.001,0.536,0.426,0.707c1.121,0.452,2.232,0.95,3.293,1.529
	c1.691,0.924,2.38,3.583,5.041,2.875c0.302-0.08,0.746,0.169,1.058,0.368c0.861,0.551,1.836,0.508,2.777,0.705
	c1.539,0.323,23.385,0.137,23.797-0.322c1.14-1.27,2.758-1.841,3.94-3.087c1.945-2.049,3.683-4.267,5.404-6.475
	c1.333-1.71,2.899-3.649,1.592-6.175c-0.06-0.116-0.038-0.339,0.037-0.451c1.547-2.318,1.353-5.293,3.372-7.585
	c1.865-2.117,2.63-5.118,3.65-7.826c0.486-1.29,1.757-2.332,3.196-2.33c0.898,0.001,2.491-2.159,2.04-2.944
	c-0.472-0.82-0.127-1.288,0.437-1.63c1.338-0.811,2.102-2.168,2.97-3.327c2.245-2.994,4.747-5.73,7.328-8.42
	c1.125-1.173,2.143-2.446,3.331-3.571c0.511-0.484,0.796-1.03,0.02-1.859c-0.392-0.419,1.383-0.504,1.423-1.495
	c0.065-1.595,0.976-1.995,2.411-1.698C524.489,288.439,524.785,288.049,524.198,287.319z"/>
<path d="M493.09,417.249c-1.087-0.45-2.157,0.175-3.243,0.235c-0.875,0.048-1.631,1.506-2.642,0.222
	c-0.039-0.049-0.423,0.081-0.559,0.216c-0.786,0.778-1.662,1.731-1.554,2.774c0.304,2.937-0.681,5.596-1.646,8.192
	c-1.365,3.67-2.288,7.456-3.423,11.185c-0.242,0.794-0.016,1.697-0.656,2.425c-0.397,0.451-0.591,1.051-1.397,0.661
	c-0.689-0.334-1.005-0.745-0.793-1.539c0.224-0.839,0.361-1.702,0.532-2.555c0.064-0.321,0.153-0.69-0.222-0.857
	c-0.329-0.146-0.627,0.076-0.898,0.262c-0.6,0.412-0.699,1.063-0.833,1.708c-0.179,0.863-0.389,1.72-0.647,2.85
	c-1.628-2.486-1.912-5.001-2.307-7.474c-0.257-1.607-0.333-3.246-0.654-4.838c-0.269-1.333-0.725-2.547,0.766-3.529
	c0.535-0.352,0.677-1.226,0.113-1.749c-0.698-0.647-0.995,0.117-1.362,0.566c-0.18,0.221-0.38,0.563-0.779,0.269
	c0.139-0.783,0.93-1.574,0.282-2.314c-1.439-1.643-0.58-3.718-0.924-5.529c-0.246-1.294-0.338-2.945-0.337-4.444
	c0.002-2.851-0.48-5.667-0.814-8.494c-0.113-0.953,0.113-1.943,0.126-2.916c0.005-0.396,0.002-1.118-0.59-0.899
	c-0.954,0.351-1.362-0.321-2.005-0.669c-1.139-0.616-2.559-1.144-3.603-0.323c-0.881,0.693-1.375,1.832-1.438,3.267
	c-0.1,2.289,0.374,4.515,0.294,6.772c-0.035,0.988-0.165,2.039,0.291,2.881c1.123,2.075,0.344,4.353,0.873,6.451
	c0.673,2.669-1.778,5.454,0.371,8.044c0.124,0.15,0.025,0.539-0.053,0.793c-0.673,2.201-0.262,4.401-0.026,6.602
	c-0.159,1.769,0.323,3.594-0.943,5.245c-0.698,0.91-1.371,1.312-2.435,1.14c-1.13-0.183-0.839-1.151-0.874-1.821
	c-0.102-1.951-0.451-3.859-0.805-5.771c-1.18-0.258-0.856-0.91-0.369-1.538c1.196-1.542,1.243-1.657-0.59-2.246
	c-1.088-0.349-1.322-0.904-1.263-1.894c0.051-0.856,0.268-1.877-0.389-2.502c-1.032-0.981-0.965-1.581,0.303-2.15
	c0.236-0.106,0.41-0.353,0.336-0.682c-0.36-0.599-1.094,0.659-1.566-0.443c-0.919-2.146-0.114-4.921-2.408-6.57
	c-0.213-0.153-0.128-0.721-0.181-1.097c-0.204-1.451-0.479-2.884-0.974-4.27c-1.016-2.846-2.075-5.678-2.997-8.554
	c-0.482-1.502-2.206-2.903-3.827-2.694c-0.411,0.053-0.702,0.062-1.042-0.148c-0.508-0.313-1.075-0.467-1.361,0.234
	c-0.359,0.88-1.789,1.421-1.086,2.59c0.428,0.712,0.319,1.318,0.283,2.01c-0.04,0.751-0.468,1.506-0.119,2.247
	c0.993,2.11,0.556,4.661,2.064,6.62c0.161,0.209,0.051,0.632,0.055,0.956c0.039,3.287,0.869,6.504,2.109,9.415
	c1.059,2.487,0.93,5.034,1.319,7.486c0.362,2.277,1.3,4.288,1.841,6.448c0.378,1.509,0.8,2.776-0.369,4.054
	c-0.37,0.404-0.703,0.877-0.389,1.469c0.357,0.673,0.96,0.126,1.59,0.263c-0.542,0.604-0.513,1.471-1.342,1.92
	c-0.251-0.592-0.467-1.126-0.705-1.65c-0.195-0.431-0.282-1.029-0.928-0.975c-0.757,0.064-0.074,0.878-0.507,1.144
	c-0.672-0.097-0.802-0.676-1.084-1.125c-0.627-0.998-0.793-2.341-1.749-3.039c-0.969-0.707-1.133-2.705-3.023-2.011
	c-0.047-0.095-0.127-0.189-0.132-0.286c-0.146-2.787-1.243-4.99-3.552-6.709c-0.918-0.683-2.191-1.565-1.713-3.197
	c0.063-0.216-0.037-0.568-0.191-0.745c-1.226-1.41-2.024-3.194-2.64-4.797c-1.092-2.842-3.3-4.865-4.538-7.517
	c-0.497-1.066-1.092-1.013-1.845-0.374c-1.02,0.866-2.089,1.002-3.328,0.453c-0.984-0.436-2.15,0.501-1.703,1.45
	c0.671,1.423,0.581,2.963,1.094,4.401c0.88,2.465,2.758,4.392,3.519,6.91c0.502,1.66,2.166,2.712,2.601,4.352
	c0.354,1.332,0.672,2.639,1.551,3.689c0.43,0.513,0.85,1.021,1.001,1.639c0.404,1.654,1.125,3.157,1.96,4.622
	c0.563,0.987,0.694,2.285,2,2.726c-0.05,3.171,3.016,5.278,2.9,8.476c-0.005,0.149,0.074,0.395,0.179,0.439
	c1.734,0.73,0.976,2.532,1.575,3.758c0.406,0.83,0.24,1.903-0.699,2.633c-0.629,0.49-0.872,1.239-0.817,2.047
	c0.113,1.644,1.327,2.905,1.54,4.567c0.104,0.807,0.459,0.762-0.368,0.87c-1.422,0.186-1.121,3.003-1.85,3.98
	c-1.554-0.568-2.19-2.038-3.277-3.026c-0.651-0.591-1.159-1.257-2.137-1.315c-0.482-0.029-6.518-4.729-6.794-4.483
	c-0.426,0.378-1.208,0.397-1.334,0.114c-0.442-0.996-1.563-1.08-2.146-1.857c-0.617-0.823-1.52-0.896-2.506-0.72
	c-0.896,0.16-1.821,0.253-2.727,0.22c-0.421-0.015-1.063-0.293-1.227,0.005c-0.748,1.363-1.615,0.691-2.474,0.256
	c-1.253-0.635-2.026,0.045-2.762,0.931c-0.779,0.937,0.081,1.468,0.487,2.118c0.202,0.323,0.342,0.704,0.603,0.967
	c0.879,0.888,1.365,2.498,3.171,1.783c0.253-0.1,0.571,0.109,0.625,0.402c0.217,1.169,1.282,1.369,2.082,1.863
	c0.908,0.561,1.931,0.982,2.355,2.084c0.866-0.328,1.498-0.103,2.092,0.656c0.877,1.121,2.105,1.946,2.704,3.32
	c0.241,0.553,0.858,1.118,1.383,1.024c1.839-0.332,1.974,1.072,2.398,2.165c0.275,0.709,0.074,1.681,1.194,1.851
	c0.082,0.012,0.155,0.266,0.182,0.416c0.079,0.436,1.745,1.647,2.032,1.395c1.205-1.06,1.05-0.001,1.104,0.676
	c0.151,1.902,1.057,3.684,2.462,4.596c1.621,1.053,2.641,2.552,4.022,3.743c0.712,0.614,0.403,1.701,1.225,2.221
	c1.869,1.182,3.089,3.311,5.54,3.677c0.586,0.088,1.184,0.566,1.143,1.394c-0.037,0.751,0.503,1.13,1.105,1.201
	c2.093,0.245,2.555,2.129,3.479,3.483c0.262,0.384,0.259,0.469,0.713,0.415c1.201-0.143,2.414-0.239,3.622-0.241
	c1.927-0.002,3.809,1.999,5.803,0.1c0.226-0.215,0.735-0.21,1.104-0.185c1.02,0.069,1.854-0.437,2.774-0.715
	c1.505-0.456,20.576-11.114,20.717-11.714c0.39-1.662,1.534-2.939,1.973-4.6c0.722-2.732,1.181-5.512,1.629-8.275
	c0.347-2.14,0.789-4.593-1.57-6.18c-0.109-0.073-0.196-0.279-0.185-0.414c0.243-2.776-1.356-5.293-0.686-8.272
	c0.619-2.753-0.152-5.752-0.559-8.617c-0.194-1.365,0.421-2.89,1.684-3.578c0.788-0.43,1.148-3.09,0.375-3.562
	c-0.808-0.493-0.73-1.069-0.399-1.64c0.784-1.354,0.802-2.911,1.007-4.345c0.531-3.704,1.41-7.306,2.382-10.905
	c0.424-1.569,0.705-3.175,1.206-4.733c0.215-0.67,0.203-1.285-0.875-1.64c-0.546-0.179,0.97-1.106,0.53-1.995
	c-0.709-1.43-0.102-2.219,1.299-2.647C493.883,418.092,493.956,417.607,493.09,417.249z"/>
<path d="M301.381,291.508c1.087-0.45,2.157,0.175,3.243,0.235c0.875,0.048,1.631,1.506,2.642,0.222
	c0.039-0.049,0.423,0.081,0.559,0.216c0.786,0.778,1.662,1.731,1.554,2.774c-0.304,2.937,0.681,5.596,1.646,8.192
	c1.365,3.67,2.288,7.456,3.423,11.185c0.242,0.794,0.016,1.697,0.656,2.425c0.397,0.451,0.591,1.051,1.397,0.661
	c0.689-0.334,1.005-0.745,0.793-1.539c-0.224-0.839-0.361-1.702-0.532-2.555c-0.064-0.321-0.153-0.69,0.222-0.857
	c0.329-0.146,0.627,0.076,0.898,0.262c0.6,0.412,0.699,1.063,0.833,1.708c0.179,0.863,0.389,1.72,0.647,2.85
	c1.628-2.486,1.912-5.001,2.307-7.474c0.257-1.607,0.333-3.246,0.654-4.838c0.269-1.333,0.725-2.547-0.766-3.529
	c-0.535-0.352-0.677-1.226-0.113-1.749c0.698-0.647,0.995,0.117,1.362,0.566c0.18,0.221,0.38,0.563,0.779,0.269
	c-0.139-0.783-0.93-1.574-0.282-2.314c1.439-1.643,0.58-3.718,0.924-5.529c0.246-1.293,0.338-2.945,0.337-4.444
	c-0.002-2.851,0.48-5.667,0.814-8.494c0.113-0.953-0.113-1.943-0.126-2.916c-0.005-0.396-0.002-1.118,0.59-0.899
	c0.954,0.351,1.362-0.321,2.005-0.669c1.139-0.616,2.559-1.144,3.603-0.323c0.881,0.693,1.375,1.832,1.438,3.267
	c0.1,2.289-0.374,4.515-0.294,6.772c0.035,0.988,0.165,2.039-0.291,2.881c-1.123,2.075-0.344,4.353-0.873,6.451
	c-0.673,2.669,1.778,5.454-0.371,8.044c-0.124,0.15-0.025,0.539,0.053,0.793c0.673,2.201,0.262,4.401,0.026,6.602
	c0.159,1.769-0.323,3.595,0.943,5.246c0.698,0.91,1.371,1.312,2.435,1.14c1.13-0.183,0.839-1.151,0.874-1.821
	c0.102-1.951,0.451-3.859,0.805-5.771c1.18-0.258,0.856-0.91,0.369-1.538c-1.196-1.542-1.243-1.657,0.59-2.246
	c1.088-0.349,1.322-0.904,1.263-1.894c-0.051-0.856-0.268-1.877,0.389-2.502c1.032-0.981,0.965-1.581-0.302-2.15
	c-0.236-0.106-0.41-0.353-0.336-0.682c0.36-0.599,1.094,0.659,1.566-0.443c0.919-2.146,0.114-4.921,2.408-6.57
	c0.213-0.153,0.128-0.721,0.181-1.097c0.204-1.451,0.479-2.884,0.974-4.27c1.016-2.846,2.075-5.678,2.997-8.554
	c0.482-1.502,2.206-2.903,3.827-2.694c0.411,0.053,0.701,0.061,1.042-0.148c0.508-0.313,1.075-0.467,1.362,0.235
	c0.359,0.88,1.789,1.421,1.086,2.59c-0.428,0.712-0.319,1.318-0.283,2.01c0.04,0.751,0.468,1.506,0.119,2.247
	c-0.993,2.11-0.556,4.661-2.064,6.62c-0.161,0.209-0.051,0.632-0.055,0.956c-0.039,3.287-0.869,6.504-2.109,9.415
	c-1.059,2.487-0.93,5.034-1.319,7.486c-0.362,2.277-1.3,4.288-1.841,6.448c-0.378,1.509-0.8,2.776,0.369,4.054
	c0.37,0.404,0.703,0.877,0.389,1.469c-0.357,0.673-0.96,0.126-1.59,0.263c0.542,0.604,0.513,1.471,1.342,1.92
	c0.252-0.592,0.467-1.126,0.705-1.65c0.195-0.431,0.282-1.029,0.928-0.975c0.757,0.064,0.074,0.878,0.507,1.144
	c0.672-0.097,0.802-0.676,1.084-1.125c0.627-0.998,0.793-2.341,1.749-3.039c0.969-0.707,1.133-2.705,3.023-2.011
	c0.047-0.095,0.127-0.189,0.132-0.286c0.146-2.787,1.243-4.99,3.552-6.709c0.918-0.683,2.191-1.565,1.713-3.197
	c-0.063-0.216,0.037-0.568,0.191-0.745c1.226-1.41,2.024-3.194,2.64-4.797c1.092-2.842,3.3-4.865,4.538-7.517
	c0.497-1.066,1.092-1.013,1.845-0.374c1.02,0.866,2.089,1.002,3.328,0.453c0.984-0.436,2.15,0.501,1.703,1.45
	c-0.671,1.423-0.581,2.963-1.094,4.401c-0.88,2.465-2.758,4.392-3.519,6.91c-0.502,1.66-2.166,2.712-2.601,4.352
	c-0.354,1.332-0.672,2.639-1.551,3.689c-0.43,0.513-0.85,1.021-1.001,1.639c-0.404,1.654-1.125,3.157-1.96,4.622
	c-0.563,0.987-0.694,2.285-2,2.726c0.05,3.171-3.016,5.278-2.9,8.476c0.005,0.149-0.074,0.395-0.179,0.439
	c-1.734,0.73-0.976,2.532-1.575,3.758c-0.406,0.83-0.24,1.903,0.699,2.633c0.629,0.49,0.872,1.239,0.817,2.047
	c-0.113,1.644-1.327,2.905-1.54,4.567c-0.104,0.807-0.459,0.762,0.368,0.87c1.422,0.186,1.121,3.003,1.85,3.98
	c1.553-0.568,2.19-2.038,3.277-3.026c0.651-0.591,1.159-1.257,2.137-1.315c0.482-0.029,6.518-4.729,6.794-4.483
	c0.426,0.378,1.208,0.397,1.334,0.114c0.442-0.996,1.563-1.08,2.146-1.857c0.617-0.823,1.52-0.896,2.506-0.72
	c0.896,0.16,1.821,0.253,2.727,0.22c0.421-0.015,1.063-0.293,1.227,0.005c0.748,1.363,1.615,0.691,2.474,0.256
	c1.253-0.635,2.026,0.045,2.762,0.931c0.779,0.937-0.081,1.468-0.487,2.118c-0.202,0.323-0.342,0.704-0.603,0.967
	c-0.879,0.888-1.365,2.498-3.171,1.783c-0.253-0.1-0.571,0.109-0.625,0.402c-0.217,1.169-1.282,1.369-2.082,1.863
	c-0.908,0.561-1.931,0.982-2.355,2.084c-0.866-0.328-1.498-0.103-2.093,0.656c-0.877,1.121-2.105,1.946-2.704,3.32
	c-0.241,0.553-0.858,1.118-1.383,1.024c-1.839-0.332-1.974,1.072-2.398,2.165c-0.275,0.709-0.074,1.681-1.194,1.851
	c-0.082,0.012-0.155,0.266-0.182,0.416c-0.08,0.436-1.745,1.647-2.032,1.395c-1.205-1.06-1.05-0.001-1.104,0.676
	c-0.151,1.902-1.057,3.684-2.462,4.596c-1.621,1.053-2.641,2.552-4.022,3.743c-0.712,0.614-0.403,1.701-1.225,2.221
	c-1.869,1.182-3.089,3.311-5.54,3.677c-0.586,0.088-1.184,0.566-1.143,1.394c0.037,0.751-0.503,1.13-1.105,1.201
	c-2.093,0.245-2.555,2.129-3.479,3.483c-0.262,0.384-0.259,0.469-0.713,0.415c-1.201-0.143-2.414-0.239-3.622-0.241
	c-1.927-0.002-3.809,1.999-5.803,0.1c-0.226-0.215-0.735-0.21-1.104-0.185c-1.02,0.069-1.854-0.437-2.774-0.715
	c-1.505-0.456-20.576-11.113-20.717-11.714c-0.39-1.662-1.534-2.939-1.973-4.6c-0.722-2.732-1.181-5.512-1.629-8.275
	c-0.347-2.14-0.789-4.593,1.57-6.18c0.109-0.073,0.196-0.279,0.185-0.414c-0.243-2.776,1.356-5.293,0.686-8.272
	c-0.619-2.753,0.152-5.752,0.559-8.617c0.194-1.365-0.421-2.89-1.684-3.579c-0.788-0.43-1.148-3.09-0.375-3.562
	c0.808-0.493,0.73-1.069,0.399-1.64c-0.784-1.354-0.802-2.911-1.007-4.345c-0.531-3.704-1.411-7.306-2.382-10.905
	c-0.424-1.569-0.705-3.175-1.206-4.733c-0.215-0.67-0.203-1.285,0.875-1.64c0.546-0.179-0.97-1.106-0.53-1.995
	c0.709-1.43,0.102-2.219-1.299-2.647C300.587,292.35,300.515,291.866,301.381,291.508z"/>
<path d="M205.585,424.417c0.708-0.939,1.947-0.945,2.913-1.444c0.778-0.403,2.17,0.469,2.389-1.151
	c0.008-0.062,0.406-0.145,0.591-0.098c1.072,0.271,2.311,0.648,2.747,1.6c1.23,2.685,3.428,4.475,5.578,6.221
	c3.039,2.469,5.757,5.261,8.629,7.897c0.612,0.562,0.875,1.454,1.796,1.756c0.571,0.187,1.043,0.605,1.539-0.14
	c0.424-0.637,0.488-1.152-0.098-1.729c-0.619-0.609-1.176-1.283-1.756-1.931c-0.218-0.244-0.483-0.517-0.244-0.851
	c0.209-0.293,0.579-0.253,0.906-0.23c0.726,0.05,1.142,0.561,1.585,1.048c0.593,0.653,1.208,1.285,2.004,2.127
	c0.14-2.968-0.893-5.28-1.808-7.61c-0.595-1.515-1.362-2.966-1.893-4.5c-0.445-1.285-0.668-2.562-2.452-2.651
	c-0.64-0.032-1.206-0.712-0.986-1.449c0.272-0.912,0.917-0.404,1.461-0.204c0.267,0.099,0.613,0.292,0.807-0.163
	c-0.518-0.604-1.6-0.884-1.418-1.85c0.405-2.146-1.389-3.498-2.012-5.232c-0.445-1.239-1.205-2.708-1.967-3.999
	c-1.45-2.455-2.464-5.126-3.612-7.731c-0.387-0.878-1.084-1.616-1.59-2.448c-0.206-0.339-0.569-0.962,0.052-1.075
	c1-0.182,1.01-0.968,1.388-1.594c0.668-1.109,1.624-2.285,2.94-2.108c1.111,0.149,2.115,0.88,2.898,2.084
	c1.249,1.921,1.97,4.079,3.186,5.983c0.532,0.833,1.177,1.673,1.212,2.63c0.086,2.358,1.914,3.924,2.524,6.001
	c0.776,2.64,4.301,3.796,3.766,7.118c-0.031,0.192,0.253,0.477,0.448,0.656c1.698,1.554,2.461,3.658,3.375,5.675
	c1.035,1.444,1.547,3.261,3.477,4.04c1.064,0.429,1.848,0.434,2.676-0.254c0.88-0.732,0.139-1.417-0.172-2.013
	c-0.903-1.733-1.571-3.554-2.237-5.38c0.885-0.821,0.276-1.219-0.463-1.513c-1.813-0.721-1.913-0.796-0.633-2.234
	c0.76-0.854,0.679-1.45,0.126-2.273c-0.478-0.712-1.184-1.481-0.936-2.353c0.391-1.369,0.029-1.852-1.352-1.699
	c-0.257,0.029-0.532-0.096-0.636-0.417c0.006-0.699,1.277,0.012,1.124-1.177c-0.299-2.315-2.401-4.298-1.262-6.882
	c0.106-0.24-0.256-0.686-0.401-1.036c-0.561-1.354-1.052-2.728-1.33-4.173c-0.57-2.967-1.096-5.945-1.762-8.891
	c-0.348-1.539,0.426-3.621,1.929-4.264c0.381-0.163,0.636-0.303,0.823-0.657c0.279-0.527,0.689-0.948,1.292-0.489
	c0.756,0.576,2.263,0.315,2.251,1.68c-0.007,0.83,0.394,1.298,0.777,1.875c0.416,0.626,1.168,1.06,1.244,1.876
	c0.216,2.322,1.888,4.298,1.584,6.751c-0.032,0.262,0.277,0.57,0.438,0.851c1.635,2.851,2.554,6.044,2.965,9.181
	c0.351,2.68,1.755,4.808,2.665,7.119c0.845,2.145,1.058,4.354,1.689,6.49c0.441,1.492,0.721,2.798,2.377,3.305
	c0.524,0.16,1.051,0.398,1.081,1.068c0.034,0.762-0.764,0.596-1.236,1.034c0.773,0.245,1.189,1.007,2.131,0.973
	c-0.084-0.637-0.169-1.207-0.231-1.78c-0.051-0.47-0.279-1.03,0.305-1.311c0.684-0.329,0.51,0.718,1.018,0.728
	c0.53-0.425,0.347-0.989,0.362-1.519c0.033-1.178-0.505-2.419-0.037-3.506c0.475-1.101-0.397-2.905,1.583-3.268
	c-0.008-0.105,0.013-0.227-0.032-0.314c-1.29-2.475-1.463-4.93-0.347-7.583c0.444-1.055,1.093-2.46-0.148-3.624
	c-0.164-0.154-0.256-0.508-0.214-0.738c0.34-1.837,0.122-3.78-0.162-5.474c-0.502-3.003,0.373-5.867,0.092-8.78
	c-0.113-1.171,0.426-1.427,1.399-1.259c1.319,0.228,2.308-0.198,3.096-1.3c0.626-0.876,2.107-0.661,2.203,0.384
	c0.145,1.566,1.004,2.848,1.293,4.347c0.494,2.571-0.145,5.184,0.477,7.74c0.411,1.685-0.488,3.436-0.031,5.07
	c0.372,1.327,0.761,2.615,0.537,3.965c-0.11,0.661-0.214,1.311-0.03,1.92c0.492,1.63,0.634,3.291,0.659,4.977
	c0.017,1.136,0.563,2.321-0.338,3.364c1.654,2.706,0.083,6.078,1.806,8.775c0.08,0.125,0.137,0.378,0.069,0.469
	c-1.123,1.509,0.445,2.677,0.551,4.038c0.072,0.922,0.76,1.761,1.939,1.914c0.79,0.102,1.381,0.624,1.743,1.349
	c0.738,1.474,0.332,3.177,0.992,4.716c0.321,0.748-0.009,0.889,0.759,0.562c1.319-0.562,2.491,2.018,3.615,2.489
	c1.05-1.278,0.852-2.868,1.287-4.271c0.26-0.84,0.36-1.671,1.173-2.218c0.401-0.269,3.213-7.383,3.576-7.312
	c0.56,0.109,1.243-0.271,1.207-0.579c-0.125-1.082,0.798-1.724,0.905-2.69c0.114-1.022,0.855-1.544,1.793-1.893
	c0.853-0.317,1.697-0.707,2.461-1.196c0.355-0.227,0.767-0.793,1.06-0.619c1.337,0.794,1.742-0.225,2.261-1.036
	c0.757-1.183,1.768-0.99,2.853-0.6c1.147,0.412,0.676,1.306,0.656,2.072c-0.01,0.381,0.063,0.78-0.028,1.139
	c-0.306,1.212,0.092,2.845-1.826,3.146c-0.269,0.042-0.436,0.384-0.335,0.664c0.406,1.117-0.409,1.83-0.848,2.662
	c-0.497,0.944-1.164,1.826-0.97,2.991c-0.912,0.157-1.343,0.672-1.469,1.628c-0.186,1.411-0.825,2.745-0.643,4.233
	c0.073,0.598-0.171,1.399-0.672,1.584c-1.753,0.648-1.156,1.926-0.967,3.083c0.123,0.75,0.79,1.486-0.088,2.201
	c-0.064,0.052,0.002,0.307,0.055,0.451c0.153,0.416-0.667,2.305-1.042,2.234c-1.577-0.301-0.905,0.533-0.608,1.143
	c0.836,1.715,0.96,3.71,0.213,5.209c-0.861,1.73-0.979,3.54-1.564,5.267c-0.301,0.89,0.517,1.67,0.073,2.536
	c-1.01,1.967-0.98,4.421-2.905,5.981c-0.46,0.373-0.733,1.089-0.277,1.782c0.414,0.628,0.141,1.229-0.342,1.596
	c-1.679,1.274-1.12,3.132-1.229,4.767c-0.031,0.464,0.016,0.536-0.403,0.72c-1.107,0.487-2.201,1.02-3.243,1.632
	c-1.661,0.977-2.266,3.656-4.948,3.033c-0.304-0.071-0.74,0.192-1.045,0.401c-0.844,0.578-1.819,0.565-2.753,0.793
	c-1.528,0.372-23.369,0.875-23.795,0.429c-1.18-1.233-2.814-1.753-4.036-2.961c-2.009-1.987-3.816-4.149-5.605-6.301
	c-1.386-1.667-3.012-3.556-1.786-6.121c0.056-0.118,0.027-0.34-0.051-0.45c-1.619-2.268-1.519-5.248-3.61-7.475
	c-1.931-2.057-2.79-5.032-3.895-7.707c-0.526-1.274-1.83-2.276-3.268-2.228c-0.898,0.03-2.558-2.079-2.132-2.878
	c0.446-0.835,0.086-1.291-0.489-1.615c-1.363-0.768-2.169-2.101-3.074-3.231c-2.339-2.921-4.925-5.577-7.59-8.185
	c-1.162-1.137-2.219-2.377-3.442-3.465c-0.526-0.467-0.828-1.004-0.079-1.857c0.379-0.432-1.398-0.46-1.47-1.45
	c-0.115-1.592-1.039-1.963-2.463-1.621C205.329,425.546,205.021,425.165,205.585,424.417z"/>
<path d="M162.939,335.12c0.482,0.838,1.138,1.49,0.417,2.337c-0.276,0.325,0.055,0.578,0.34,0.764
	c0.24,0.157,0.499,0.454,0.344,0.661c-1.22,1.631,0.405,2.294,1.167,3.03c1.154,1.115,0.313,1.704-0.483,1.838
	c-1.583,0.268-3.224,0.208-4.842,0.239c-0.527,0.01-0.685-0.465-0.817-0.886c-0.141-0.45,0.13-0.737,0.46-0.944
	c1.387-0.866,1.377-2.211,1.218-3.583c-0.089-0.773,0.443-1.193,0.848-1.665C162.066,336.356,162.84,336.048,162.939,335.12z"/>
</svg>
